# xmcd
#
# Track frame offsets:
#	150
#	13159
#	33555
#	52532
#	67780
#	93417
#	106774
#	124877
#	143146
#	172663
#
# Disc length: 2478 seconds
# Revision: 0
# Processed by: cddbd v1.5.2PL0 Copyright (c) Steve Scherf et al.
# Submitted via: dBpowerAMP V12.0
#
DISCID=7209ac0a
DTITLE=The Wooks - Glory Bound
DYEAR=2018
DGENRE=Americana
TTITLE0=Union Pacific
TTITLE1=Little Sandy Queen
TTITLE2=Helechawa
TTITLE3=Glory Bound
TTITLE4=Dear Prudence
TTITLE5=Seng
TTITLE6=Let it Ride
TTITLE7=The Few (Of Far Less Fortune)
TTITLE8=Surface
TTITLE9=Tom Ames' Prayer
EXTD=
EXTT0=
EXTT1=
EXTT2=
EXTT3=
EXTT4=
EXTT5=
EXTT6=
EXTT7=
EXTT8=
EXTT9=
PLAYORDER=
